<svg width="18" height="18" viewBox="0 0 18 18" fill="none" xmlns="http://www.w3.org/2000/svg">
<path d="M8.25 2.99993H3C2.60218 2.99993 2.22064 3.15796 1.93934 3.43927C1.65804 3.72057 1.5 4.1021 1.5 4.49993V14.9999C1.5 15.3978 1.65804 15.7793 1.93934 16.0606C2.22064 16.3419 2.60218 16.4999 3 16.4999H13.5C13.8978 16.4999 14.2794 16.3419 14.5607 16.0606C14.842 15.7793 15 15.3978 15 14.9999V9.74993M13.875 1.87493C14.1734 1.57656 14.578 1.40894 15 1.40894C15.422 1.40894 15.8266 1.57656 16.125 1.87493C16.4234 2.17329 16.591 2.57797 16.591 2.99993C16.591 3.42188 16.4234 3.82656 16.125 4.12493L9 11.2499L6 11.9999L6.75 8.99993L13.875 1.87493Z" stroke="#973559" stroke-linecap="round" stroke-linejoin="round"/>
</svg>
