<svg width="30" height="31" viewBox="0 0 30 31" fill="none" xmlns="http://www.w3.org/2000/svg">
<path d="M26.0501 6.09584C25.4117 5.45709 24.6537 4.95039 23.8193 4.60469C22.985 4.25899 22.0908 4.08105 21.1876 4.08105C20.2845 4.08105 19.3903 4.25899 18.556 4.60469C17.7216 4.95039 16.9636 5.45709 16.3251 6.09584L15.0001 7.42084L13.6751 6.09584C12.3855 4.80622 10.6364 4.08172 8.81265 4.08172C6.98886 4.08172 5.23976 4.80622 3.95015 6.09584C2.66053 7.38545 1.93604 9.13454 1.93604 10.9583C1.93604 12.7821 2.66053 14.5312 3.95015 15.8208L5.27515 17.1458L15.0001 26.8708L24.7251 17.1458L26.0501 15.8208C26.6889 15.1824 27.1956 14.4244 27.5413 13.59C27.887 12.7557 28.0649 11.8614 28.0649 10.9583C28.0649 10.0552 27.887 9.16097 27.5413 8.32664C27.1956 7.49232 26.6889 6.73428 26.0501 6.09584V6.09584Z" stroke="#FCFCFC" stroke-width="2" stroke-linecap="round" stroke-linejoin="round"/>
</svg>
