<svg width="24" height="24" viewBox="0 0 24 24" fill="none" xmlns="http://www.w3.org/2000/svg">
<g clip-path="url(#clip0_635_1931)">
<path d="M23.6719 12.7969C24.1125 12.3563 24.1125 11.6438 23.6719 11.2078L17.6719 5.20312C17.2313 4.7625 16.5188 4.7625 16.0828 5.20312C15.6469 5.64375 15.6422 6.35625 16.0828 6.79219L20.1609 10.8703L8.625 10.875C8.00156 10.875 7.5 11.3766 7.5 12C7.5 12.6234 8.00156 13.125 8.625 13.125H20.1609L16.0828 17.2031C15.6422 17.6437 15.6422 18.3562 16.0828 18.7922C16.5234 19.2281 17.2359 19.2328 17.6719 18.7922L23.6719 12.7969ZM7.875 3.75C8.49844 3.75 9 3.24844 9 2.625C9 2.00156 8.49844 1.5 7.875 1.5H4.125C1.84688 1.5 0 3.34688 0 5.625V18.375C0 20.6531 1.84688 22.5 4.125 22.5H7.875C8.49844 22.5 9 21.9984 9 21.375C9 20.7516 8.49844 20.25 7.875 20.25H4.125C3.08906 20.25 2.25 19.4109 2.25 18.375V5.625C2.25 4.58906 3.08906 3.75 4.125 3.75H7.875Z" fill="#F2D9E2"/>
</g>
<defs>
<clipPath id="clip0_635_1931">
<rect width="24" height="24" fill="white"/>
</clipPath>
</defs>
</svg>
