<svg width="24" height="24" viewBox="0 0 24 24" fill="none" xmlns="http://www.w3.org/2000/svg">
<g clip-path="url(#clip0_628_686)">
<path d="M12 0C12.6234 0 13.125 0.501562 13.125 1.125V3.07031C17.1938 3.57656 20.4234 6.80625 20.9297 10.875H22.875C23.4984 10.875 24 11.3766 24 12C24 12.6234 23.4984 13.125 22.875 13.125H20.9297C20.4234 17.1938 17.1938 20.4234 13.125 20.9297V22.875C13.125 23.4984 12.6234 24 12 24C11.3766 24 10.875 23.4984 10.875 22.875V20.9297C6.80625 20.4234 3.57656 17.1938 3.07031 13.125H1.125C0.501562 13.125 0 12.6234 0 12C0 11.3766 0.501562 10.875 1.125 10.875H3.07031C3.57656 6.80625 6.80625 3.57656 10.875 3.07031V1.125C10.875 0.501562 11.3766 0 12 0ZM5.25 12C5.25 13.7902 5.96116 15.5071 7.22703 16.773C8.4929 18.0388 10.2098 18.75 12 18.75C13.7902 18.75 15.5071 18.0388 16.773 16.773C18.0388 15.5071 18.75 13.7902 18.75 12C18.75 10.2098 18.0388 8.4929 16.773 7.22703C15.5071 5.96116 13.7902 5.25 12 5.25C10.2098 5.25 8.4929 5.96116 7.22703 7.22703C5.96116 8.4929 5.25 10.2098 5.25 12ZM14.25 12C14.25 11.4033 14.0129 10.831 13.591 10.409C13.169 9.98705 12.5967 9.75 12 9.75C11.4033 9.75 10.831 9.98705 10.409 10.409C9.98705 10.831 9.75 11.4033 9.75 12C9.75 12.5967 9.98705 13.169 10.409 13.591C10.831 14.0129 11.4033 14.25 12 14.25C12.5967 14.25 13.169 14.0129 13.591 13.591C14.0129 13.169 14.25 12.5967 14.25 12ZM7.5 12C7.5 10.8065 7.97411 9.66193 8.81802 8.81802C9.66193 7.97411 10.8065 7.5 12 7.5C13.1935 7.5 14.3381 7.97411 15.182 8.81802C16.0259 9.66193 16.5 10.8065 16.5 12C16.5 13.1935 16.0259 14.3381 15.182 15.182C14.3381 16.0259 13.1935 16.5 12 16.5C10.8065 16.5 9.66193 16.0259 8.81802 15.182C7.97411 14.3381 7.5 13.1935 7.5 12Z" fill="#F2D9E2"/>
</g>
<defs>
<clipPath id="clip0_628_686">
<rect width="24" height="24" fill="white"/>
</clipPath>
</defs>
</svg>
