<svg width="24" height="24" viewBox="0 0 24 24" fill="none" xmlns="http://www.w3.org/2000/svg">
<path d="M15.75 6C15.75 5.00544 15.3549 4.05161 14.6517 3.34835C13.9484 2.64509 12.9946 2.25 12 2.25C11.0054 2.25 10.0516 2.64509 9.34835 3.34835C8.64509 4.05161 8.25 5.00544 8.25 6C8.25 6.99456 8.64509 7.94839 9.34835 8.65165C10.0516 9.35491 11.0054 9.75 12 9.75C12.9946 9.75 13.9484 9.35491 14.6517 8.65165C15.3549 7.94839 15.75 6.99456 15.75 6ZM6 6C6 4.4087 6.63214 2.88258 7.75736 1.75736C8.88258 0.632141 10.4087 0 12 0C13.5913 0 15.1174 0.632141 16.2426 1.75736C17.3679 2.88258 18 4.4087 18 6C18 7.5913 17.3679 9.11742 16.2426 10.2426C15.1174 11.3679 13.5913 12 12 12C10.4087 12 8.88258 11.3679 7.75736 10.2426C6.63214 9.11742 6 7.5913 6 6ZM3.81094 21.75H20.1891C19.7719 18.7828 17.2219 16.5 14.1422 16.5H9.85781C6.77813 16.5 4.22812 18.7828 3.81094 21.75ZM1.5 22.6078C1.5 17.9906 5.24063 14.25 9.85781 14.25H14.1422C18.7594 14.25 22.5 17.9906 22.5 22.6078C22.5 23.3766 21.8766 24 21.1078 24H2.89219C2.12344 24 1.5 23.3766 1.5 22.6078Z" fill="#F2D9E2"/>
</svg>
