<svg width="24" height="24" viewBox="0 0 24 24" fill="none" xmlns="http://www.w3.org/2000/svg">
<path d="M20.25 6V21C20.25 21.4125 19.9125 21.75 19.5 21.75H4.5C4.0875 21.75 3.75 21.4125 3.75 21V6H20.25ZM4.5 0C2.84531 0 1.5 1.34531 1.5 3V21C1.5 22.6547 2.84531 24 4.5 24H19.5C21.1547 24 22.5 22.6547 22.5 21V3C22.5 1.34531 21.1547 0 19.5 0H4.5ZM6 9.375C6 9.99844 6.50156 10.5 7.125 10.5H16.875C17.4984 10.5 18 9.99844 18 9.375C18 8.75156 17.4984 8.25 16.875 8.25H7.125C6.50156 8.25 6 8.75156 6 9.375ZM6 13.875C6 14.4984 6.50156 15 7.125 15H16.875C17.4984 15 18 14.4984 18 13.875C18 13.2516 17.4984 12.75 16.875 12.75H7.125C6.50156 12.75 6 13.2516 6 13.875ZM6 18.375C6 18.9984 6.50156 19.5 7.125 19.5H12.375C12.9984 19.5 13.5 18.9984 13.5 18.375C13.5 17.7516 12.9984 17.25 12.375 17.25H7.125C6.50156 17.25 6 17.7516 6 18.375Z" fill="#F2D9E2"/>
</svg>
