<svg width="38" height="38" viewBox="0 0 38 38" fill="none" xmlns="http://www.w3.org/2000/svg">
<g filter="url(#filter0_d_380_29121)">
<circle cx="19" cy="15" r="15" fill="#FCFCFC"/>
</g>
<path d="M16.7267 16.0066L21.28 18.6599M21.2733 11.3399L16.7267 13.9933M25 10.3333C25 11.4378 24.1046 12.3333 23 12.3333C21.8954 12.3333 21 11.4378 21 10.3333C21 9.22868 21.8954 8.33325 23 8.33325C24.1046 8.33325 25 9.22868 25 10.3333ZM17 14.9999C17 16.1045 16.1046 16.9999 15 16.9999C13.8954 16.9999 13 16.1045 13 14.9999C13 13.8953 13.8954 12.9999 15 12.9999C16.1046 12.9999 17 13.8953 17 14.9999ZM25 19.6666C25 20.7712 24.1046 21.6666 23 21.6666C21.8954 21.6666 21 20.7712 21 19.6666C21 18.562 21.8954 17.6666 23 17.6666C24.1046 17.6666 25 18.562 25 19.6666Z" stroke="#101828" stroke-linecap="round" stroke-linejoin="round"/>
<defs>
<filter id="filter0_d_380_29121" x="0" y="0" width="38" height="38" filterUnits="userSpaceOnUse" color-interpolation-filters="sRGB">
<feFlood flood-opacity="0" result="BackgroundImageFix"/>
<feColorMatrix in="SourceAlpha" type="matrix" values="0 0 0 0 0 0 0 0 0 0 0 0 0 0 0 0 0 0 127 0" result="hardAlpha"/>
<feOffset dy="4"/>
<feGaussianBlur stdDeviation="2"/>
<feComposite in2="hardAlpha" operator="out"/>
<feColorMatrix type="matrix" values="0 0 0 0 0.898039 0 0 0 0 0.898039 0 0 0 0 0.898039 0 0 0 0.25 0"/>
<feBlend mode="normal" in2="BackgroundImageFix" result="effect1_dropShadow_380_29121"/>
<feBlend mode="normal" in="SourceGraphic" in2="effect1_dropShadow_380_29121" result="shape"/>
</filter>
</defs>
</svg>
