<svg width="20" height="20" viewBox="0 0 20 20" fill="none" xmlns="http://www.w3.org/2000/svg">
<g clip-path="url(#clip0_394_593)">
<path d="M11.0881 1.28411C10.8873 0.881319 10.4631 0.625 9.99728 0.625C9.53142 0.625 9.11101 0.881319 8.90649 1.28411L6.47114 6.12853L1.03233 6.90481C0.577834 6.97073 0.199086 7.27831 0.0589499 7.6994C-0.0811866 8.1205 0.0324375 8.58554 0.35816 8.89678L4.30471 12.672L3.37299 18.0071C3.29724 18.4465 3.48661 18.8932 3.86157 19.1532C4.23653 19.4132 4.73269 19.4461 5.14174 19.2374L10.0011 16.7292L14.8604 19.2374C15.2694 19.4461 15.7656 19.4168 16.1406 19.1532C16.5155 18.8896 16.7049 18.4465 16.6291 18.0071L15.6936 12.672L19.6402 8.89678C19.9659 8.58554 20.0833 8.1205 19.9394 7.6994C19.7955 7.27831 19.4205 6.97073 18.966 6.90481L13.5234 6.12853L11.0881 1.28411Z" fill="#F4BA3E"/>
</g>
<defs>
<clipPath id="clip0_394_593">
<rect width="20" height="20" fill="white"/>
</clipPath>
</defs>
</svg>
